<?xml version="1.0" encoding="UTF-8"?> <svg xmlns="http://www.w3.org/2000/svg" xmlns:xlink="http://www.w3.org/1999/xlink" width="300px" height="180px" viewBox="0 0 300 180"><!-- Generator: Sketch 52.5 (67469) - http://www.bohemiancoding.com/sketch --><title>Logo</title><desc>Created with Sketch.</desc><defs><path d="M0.699,64.579 C0.699,97.341 25.307,124.355 57.05,128.143 L72.385,128.143 C101.698,124.645 124.927,101.341 128.311,71.993 L128.311,57.164 C124.637,25.3 97.566,0.56 64.717,0.56 C29.361,0.56 0.699,29.222 0.699,64.579" id="path-1"></path><path d="M0.699,64.579 C0.699,97.341 25.307,124.355 57.05,128.143 L72.385,128.143 C101.698,124.645 124.927,101.341 128.311,71.993 L128.311,57.164 C124.637,25.3 97.566,0.56 64.717,0.56 C29.361,0.56 0.699,29.222 0.699,64.579" id="path-3"></path><path d="M0.699,64.579 C0.699,97.341 25.307,124.355 57.05,128.143 L72.385,128.143 C101.698,124.645 124.927,101.341 128.311,71.993 L128.311,57.164 C124.637,25.3 97.566,0.56 64.717,0.56 C29.361,0.56 0.699,29.222 0.699,64.579" id="path-5"></path><path d="M0.699,64.579 C0.699,97.341 25.307,124.355 57.05,128.143 L72.385,128.143 C101.698,124.645 124.927,101.341 128.311,71.993 L128.311,57.164 C124.637,25.3 97.566,0.56 64.717,0.56 C29.361,0.56 0.699,29.222 0.699,64.579" id="path-7"></path><path d="M0.699,64.579 C0.699,97.341 25.307,124.355 57.05,128.143 L72.385,128.143 C101.698,124.645 124.927,101.341 128.311,71.993 L128.311,57.164 C124.637,25.3 97.566,0.56 64.717,0.56 C29.361,0.56 0.699,29.222 0.699,64.579" id="path-9"></path></defs><g id="Logo" stroke="none" stroke-width="1" fill="none" fill-rule="evenodd"><g id="Group" transform="translate(23.000000, 26.000000)"><g id="Group-343" transform="translate(0.000000, 22.000000)" fill="#FA4F0D"><path d="M9.7893,79.2199 C9.8413,78.7759 9.7173,78.4029 9.4173,78.1029 C9.1163,77.8029 8.6853,77.5149 8.1233,77.2409 C7.5613,76.9659 6.9023,76.6719 6.1443,76.3579 C5.3853,76.0449 4.5883,75.6269 3.7523,75.1039 C3.1253,74.7379 2.6093,74.3009 2.2043,73.7909 C1.7983,73.2809 1.5043,72.7329 1.3223,72.1449 C1.1393,71.5559 1.0603,70.9549 1.0873,70.3409 C1.1133,69.7279 1.2563,69.1199 1.5183,68.5179 C1.7793,67.9439 2.1193,67.4599 2.5373,67.0679 C2.9553,66.6759 3.4193,66.3569 3.9293,66.1079 C4.4393,65.8599 4.9543,65.6829 5.4773,65.5789 C6.0003,65.4739 6.4833,65.4219 6.9273,65.4219 L7.3983,65.4219 C8.7833,65.4999 10.0503,65.8399 11.2003,66.4409 C12.3503,67.0419 13.3303,67.8389 14.1413,68.8319 L14.2583,68.9499 L14.1413,69.1059 C13.8793,69.4729 13.5923,69.7469 13.2783,69.9289 C12.9903,70.1129 12.6643,70.2039 12.2983,70.2039 C11.9323,70.2039 11.5793,70.1319 11.2403,69.9889 C10.9003,69.8449 10.5343,69.6949 10.1423,69.5369 C9.6453,69.3289 9.1823,69.1529 8.7503,69.0079 C8.3193,68.8649 7.8813,68.7929 7.4373,68.7929 C6.8623,68.7929 6.4313,68.9169 6.1443,69.1649 C5.8563,69.4139 5.6863,69.7079 5.6343,70.0469 C5.5813,70.5439 5.7383,70.9549 6.1043,71.2819 C6.4703,71.6089 7.0063,71.9159 7.7123,72.2029 C8.5213,72.5429 9.3843,72.9159 10.2993,73.3199 C11.2133,73.7259 12.0243,74.2219 12.7293,74.8099 C13.4353,75.3979 13.9703,76.1039 14.3363,76.9269 C14.7023,77.7499 14.7413,78.7499 14.4543,79.9259 C14.3233,80.3969 14.1013,80.8859 13.7883,81.3949 C13.4743,81.9049 13.0363,82.3689 12.4743,82.7869 C11.9123,83.2049 11.2333,83.5519 10.4363,83.8259 C9.6393,84.1009 8.7053,84.2379 7.6333,84.2379 C7.4243,84.2379 7.2543,84.2249 7.1233,84.1989 C5.8693,84.1459 4.6353,83.8199 3.4193,83.2179 C2.2043,82.6179 1.1913,81.8209 0.3813,80.8279 L0.2643,80.7099 L0.3813,80.5529 C0.5113,80.3439 0.6563,80.1749 0.8123,80.0429 C0.9693,79.9129 1.1133,79.7949 1.2433,79.6909 C1.5573,79.5339 1.8713,79.4549 2.1853,79.4549 C2.5503,79.4549 2.9033,79.5279 3.2433,79.6709 C3.5823,79.8149 3.9483,79.9649 4.3403,80.1219 C4.7063,80.3049 5.1183,80.4609 5.5753,80.5929 C6.0323,80.7229 6.5363,80.8149 7.0853,80.8659 C8.0253,80.8659 8.6983,80.6839 9.1033,80.3179 C9.5083,79.9519 9.7373,79.5859 9.7893,79.2199" id="Fill-323"></path><path d="M19.5105,73.8102 C20.2165,73.3662 21.0125,73.0332 21.9015,72.8102 C22.7895,72.5892 23.7175,72.4772 24.6845,72.4772 C26.0435,72.4772 27.3365,72.6732 28.5655,73.0662 C28.4875,72.2552 28.3175,71.5372 28.0565,70.9102 C27.7165,70.0992 27.2065,69.5122 26.5275,69.1462 C26.2655,69.0142 25.9845,68.9162 25.6845,68.8522 C25.3845,68.7862 25.0375,68.7542 24.6455,68.7542 L24.2145,68.7542 C23.8485,68.7802 23.4825,68.8392 23.1175,68.9292 C22.7505,69.0222 22.3855,69.1332 22.0195,69.2632 C21.6535,69.3942 21.2875,69.5052 20.9215,69.5962 C20.5555,69.6882 20.2025,69.7332 19.8635,69.7332 C19.4975,69.7332 19.1445,69.6552 18.8045,69.4982 C18.4915,69.3162 18.2175,69.0142 17.9815,68.5962 L17.9035,68.4402 L17.9815,68.3222 C18.7655,67.4862 19.6875,66.8132 20.7455,66.3042 C21.8035,65.7942 22.9605,65.5002 24.2145,65.4212 C24.3445,65.3952 24.4555,65.3822 24.5475,65.3822 L24.8805,65.3822 C26.0825,65.3822 27.1805,65.5982 28.1735,66.0292 C29.1665,66.4602 30.0295,67.0552 30.7605,67.8122 C32.2505,69.4332 33.0215,71.5632 33.0745,74.2022 L33.0745,74.5162 C33.0745,77.2342 32.3815,79.4432 30.9965,81.1412 C30.3165,81.9782 29.4995,82.6572 28.5465,83.1792 C27.5915,83.7022 26.5275,84.0282 25.3515,84.1592 C25.1945,84.1852 25.0375,84.1982 24.8805,84.1982 L24.3715,84.1982 C23.8225,84.1982 23.2475,84.1522 22.6465,84.0612 C22.0455,83.9692 21.4565,83.7932 20.8825,83.5322 C20.2805,83.2972 19.7325,82.9902 19.2365,82.6102 C18.7395,82.2322 18.3215,81.7422 17.9815,81.1412 C17.4845,80.3832 17.2235,79.4552 17.1975,78.3582 L17.1975,78.1222 C17.1975,77.1032 17.4065,76.2552 17.8245,75.5742 C18.1905,74.8952 18.7525,74.3072 19.5105,73.8102 M27.6255,75.6922 C27.2855,75.6392 26.8995,75.5882 26.4685,75.5352 C26.0375,75.4832 25.5995,75.4562 25.1555,75.4562 C24.7895,75.4562 24.4365,75.4762 24.0975,75.5162 C23.7575,75.5542 23.4435,75.6272 23.1555,75.7312 C22.5025,75.9402 22.0055,76.2672 21.6665,76.7112 C21.5355,76.8682 21.4315,77.0442 21.3525,77.2402 C21.2745,77.4372 21.2225,77.6522 21.1965,77.8872 C21.1695,77.9662 21.1565,78.0832 21.1565,78.2402 C21.1565,78.5012 21.1965,78.7822 21.2745,79.0832 C21.3525,79.3832 21.5095,79.6652 21.7445,79.9252 C21.9545,80.1872 22.2605,80.4092 22.6665,80.5922 C23.0705,80.7752 23.6135,80.8662 24.2935,80.8662 C24.5015,80.8662 24.6585,80.8532 24.7635,80.8272 C25.4945,80.8012 26.1355,80.5922 26.6845,80.2002 C26.9455,80.0432 27.1675,79.8542 27.3505,79.6312 C27.5335,79.4092 27.6895,79.1682 27.8215,78.9062 C28.1085,78.4102 28.3045,77.9012 28.4085,77.3772 C28.5125,76.8552 28.5655,76.3722 28.5655,75.9272 C28.5395,75.9272 28.5195,75.9212 28.5065,75.9082 C28.4935,75.8952 28.4745,75.8882 28.4485,75.8882 C28.3435,75.8622 28.2255,75.8362 28.0955,75.8102 C27.9645,75.7842 27.8075,75.7452 27.6255,75.6922" id="Fill-325"></path><path d="M40.0907,66.3232 C41.2407,65.7222 42.5607,65.4212 44.0507,65.4212 C45.2777,65.4212 46.4217,65.6702 47.4797,66.1662 C48.5387,66.6622 49.4597,67.3292 50.2437,68.1652 C51.0537,69.0272 51.6877,70.0222 52.1447,71.1442 C52.6017,72.2682 52.8307,73.4962 52.8307,74.8292 C52.8307,76.1102 52.6217,77.3192 52.2037,78.4562 C51.7857,79.5922 51.1977,80.5922 50.4397,81.4542 C49.6817,82.2912 48.7607,82.9572 47.6767,83.4542 C46.5917,83.9502 45.3827,84.1982 44.0507,84.1982 C42.8217,84.1982 41.6787,83.9502 40.6207,83.4542 C39.5617,82.9572 38.6407,82.2912 37.8567,81.4542 C37.0727,80.6182 36.4517,79.6312 35.9947,78.4952 C35.5367,77.3582 35.3087,76.1362 35.3087,74.8292 L35.3087,60.9132 C35.3087,59.3462 35.7327,58.2282 36.5827,57.5612 C37.4307,56.8962 38.6667,56.5622 40.2867,56.5622 C40.2607,56.7192 40.2337,56.9542 40.2087,57.2672 C40.1827,57.5562 40.1627,57.9472 40.1497,58.4442 C40.1357,58.9402 40.1297,59.5812 40.1297,60.3652 L40.1297,61.5992 C40.1297,62.1872 40.1237,62.8082 40.1107,63.4612 C40.0977,64.1142 40.0907,64.7152 40.0907,65.2652 L40.0907,66.3232 Z M44.0507,80.8272 C44.3897,80.8272 44.7887,80.7492 45.2457,80.5922 C45.7027,80.4352 46.1407,80.1412 46.5587,79.7102 C46.9767,79.2792 47.3297,78.6652 47.6177,77.8672 C47.9047,77.0702 48.0487,76.0452 48.0487,74.7902 C48.0487,73.5352 47.9047,72.5112 47.6177,71.7132 C47.3297,70.9162 46.9767,70.3022 46.5587,69.8712 C46.1407,69.4392 45.7027,69.1462 45.2457,68.9882 C44.7887,68.8312 44.3897,68.7542 44.0507,68.7542 C43.7107,68.7542 43.3117,68.8312 42.8547,68.9882 C42.3967,69.1462 41.9587,69.4392 41.5417,69.8712 C41.1227,70.3022 40.7697,70.9162 40.4827,71.7132 C40.1947,72.5112 40.0517,73.5352 40.0517,74.7902 C40.0517,76.0452 40.1947,77.0702 40.4827,77.8672 C40.7697,78.6652 41.1227,79.2792 41.5417,79.7102 C41.9587,80.1412 42.3967,80.4352 42.8547,80.5922 C43.3117,80.7492 43.7107,80.8272 44.0507,80.8272 Z" id="Fill-327"></path><path d="M59.7692,66.3232 C60.9192,65.7222 62.2392,65.4212 63.7282,65.4212 C64.9562,65.4212 66.1002,65.6702 67.1582,66.1662 C68.2172,66.6622 69.1382,67.3292 69.9222,68.1652 C70.7322,69.0272 71.3662,70.0222 71.8232,71.1442 C72.2802,72.2682 72.5092,73.4962 72.5092,74.8292 C72.5092,76.1102 72.3002,77.3192 71.8822,78.4562 C71.4642,79.5922 70.8762,80.5922 70.1182,81.4542 C69.3602,82.2912 68.4382,82.9572 67.3552,83.4542 C66.2702,83.9502 65.0612,84.1982 63.7282,84.1982 C62.5002,84.1982 61.3572,83.9502 60.2982,83.4542 C59.2402,82.9572 58.3192,82.2912 57.5352,81.4542 C56.7512,80.6182 56.1302,79.6312 55.6732,78.4952 C55.2152,77.3582 54.9872,76.1362 54.9872,74.8292 L54.9872,60.9132 C54.9872,59.3462 55.4112,58.2282 56.2612,57.5612 C57.1092,56.8962 58.3452,56.5622 59.9652,56.5622 C59.9392,56.7192 59.9122,56.9542 59.8872,57.2672 C59.8612,57.5562 59.8412,57.9472 59.8282,58.4442 C59.8142,58.9402 59.8082,59.5812 59.8082,60.3652 L59.8082,61.5992 C59.8082,62.1872 59.8022,62.8082 59.7892,63.4612 C59.7752,64.1142 59.7692,64.7152 59.7692,65.2652 L59.7692,66.3232 Z M63.7282,80.8272 C64.0682,80.8272 64.4672,80.7492 64.9242,80.5922 C65.3812,80.4352 65.8192,80.1412 66.2372,79.7102 C66.6552,79.2792 67.0082,78.6652 67.2962,77.8672 C67.5832,77.0702 67.7272,76.0452 67.7272,74.7902 C67.7272,73.5352 67.5832,72.5112 67.2962,71.7132 C67.0082,70.9162 66.6552,70.3022 66.2372,69.8712 C65.8192,69.4392 65.3812,69.1462 64.9242,68.9882 C64.4672,68.8312 64.0682,68.7542 63.7282,68.7542 C63.3892,68.7542 62.9902,68.8312 62.5332,68.9882 C62.0752,69.1462 61.6372,69.4392 61.2202,69.8712 C60.8012,70.3022 60.4482,70.9162 60.1612,71.7132 C59.8732,72.5112 59.7302,73.5352 59.7302,74.7902 C59.7302,76.0452 59.8732,77.0702 60.1612,77.8672 C60.4482,78.6652 60.8012,79.2792 61.2202,79.7102 C61.6372,80.1412 62.0752,80.4352 62.5332,80.5922 C62.9902,80.7492 63.3892,80.8272 63.7282,80.8272 Z" id="Fill-329"></path><path d="M77.566,73.8102 C78.272,73.3662 79.069,73.0332 79.957,72.8102 C80.845,72.5892 81.773,72.4772 82.74,72.4772 C84.099,72.4772 85.393,72.6732 86.621,73.0662 C86.543,72.2552 86.373,71.5372 86.112,70.9102 C85.772,70.0992 85.262,69.5122 84.583,69.1462 C84.321,69.0142 84.04,68.9162 83.74,68.8522 C83.44,68.7862 83.093,68.7542 82.701,68.7542 L82.27,68.7542 C81.904,68.7802 81.538,68.8392 81.173,68.9292 C80.806,69.0222 80.441,69.1332 80.075,69.2632 C79.709,69.3942 79.343,69.5052 78.977,69.5962 C78.611,69.6882 78.258,69.7332 77.919,69.7332 C77.553,69.7332 77.2,69.6552 76.86,69.4982 C76.547,69.3162 76.273,69.0142 76.037,68.5962 L75.959,68.4402 L76.037,68.3222 C76.821,67.4862 77.743,66.8132 78.801,66.3042 C79.859,65.7942 81.016,65.5002 82.27,65.4212 C82.4,65.3952 82.511,65.3822 82.603,65.3822 L82.936,65.3822 C84.138,65.3822 85.236,65.5982 86.23,66.0292 C87.222,66.4602 88.085,67.0552 88.816,67.8122 C90.306,69.4332 91.077,71.5632 91.13,74.2022 L91.13,74.5162 C91.13,77.2342 90.437,79.4432 89.052,81.1412 C88.372,81.9782 87.555,82.6572 86.602,83.1792 C85.647,83.7022 84.583,84.0282 83.407,84.1592 C83.25,84.1852 83.093,84.1982 82.936,84.1982 L82.427,84.1982 C81.878,84.1982 81.303,84.1522 80.702,84.0612 C80.101,83.9692 79.513,83.7932 78.938,83.5322 C78.336,83.2972 77.788,82.9902 77.292,82.6102 C76.795,82.2322 76.377,81.7422 76.037,81.1412 C75.541,80.3832 75.279,79.4552 75.253,78.3582 L75.253,78.1222 C75.253,77.1032 75.462,76.2552 75.88,75.5742 C76.246,74.8952 76.808,74.3072 77.566,73.8102 M85.681,75.6922 C85.341,75.6392 84.955,75.5882 84.524,75.5352 C84.093,75.4832 83.655,75.4562 83.211,75.4562 C82.845,75.4562 82.492,75.4762 82.153,75.5162 C81.813,75.5542 81.499,75.6272 81.212,75.7312 C80.558,75.9402 80.061,76.2672 79.722,76.7112 C79.591,76.8682 79.487,77.0442 79.408,77.2402 C79.33,77.4372 79.278,77.6522 79.252,77.8872 C79.225,77.9662 79.212,78.0832 79.212,78.2402 C79.212,78.5012 79.252,78.7822 79.33,79.0832 C79.408,79.3832 79.565,79.6652 79.801,79.9252 C80.01,80.1872 80.316,80.4092 80.722,80.5922 C81.126,80.7752 81.669,80.8662 82.349,80.8662 C82.557,80.8662 82.714,80.8532 82.819,80.8272 C83.55,80.8012 84.191,80.5922 84.74,80.2002 C85.001,80.0432 85.223,79.8542 85.406,79.6312 C85.589,79.4092 85.745,79.1682 85.877,78.9062 C86.164,78.4102 86.36,77.9012 86.464,77.3772 C86.568,76.8552 86.621,76.3722 86.621,75.9272 C86.595,75.9272 86.575,75.9212 86.563,75.9082 C86.549,75.8952 86.53,75.8882 86.504,75.8882 C86.399,75.8622 86.281,75.8362 86.151,75.8102 C86.02,75.7842 85.863,75.7452 85.681,75.6922" id="Fill-331"></path><path d="M94.0693,74.3596 C94.0693,72.6086 94.3243,71.1776 94.8333,70.0666 C95.3433,68.9566 96.0023,68.0866 96.8133,67.4596 C97.6223,66.8326 98.5313,66.4086 99.5373,66.1866 C100.5433,65.9646 101.5433,65.8526 102.5363,65.8526 L104.4573,65.8526 C104.5873,66.4016 104.6143,66.9116 104.5363,67.3816 C104.4833,67.7736 104.3063,68.1526 104.0063,68.5176 C103.7063,68.8846 103.2153,69.1066 102.5363,69.1846 C102.0923,69.2376 101.6543,69.3356 101.2233,69.4786 C100.7923,69.6226 100.4063,69.8706 100.0663,70.2236 C99.7273,70.5766 99.4453,71.0796 99.2243,71.7326 C99.0013,72.3856 98.8913,73.2616 98.8913,74.3596 L98.8913,80.0426 C98.8913,80.8276 98.8973,81.4606 98.9103,81.9446 C98.9233,82.4286 98.9433,82.8136 98.9693,83.1006 C98.9953,83.4146 99.0213,83.6496 99.0473,83.8066 C97.4533,83.8066 96.2253,83.4736 95.3633,82.8066 C94.5003,82.1406 94.0693,81.0236 94.0693,79.4546 L94.0693,74.3596 Z" id="Fill-333"></path><path d="M10.7661,20.8917 C10.6621,20.9577 10.5461,21.0117 10.4511,21.0857 C9.6101,21.7467 9.1581,22.9617 9.1581,24.5167 L9.1711,24.5437 C9.1671,24.6127 9.1621,24.6807 9.1621,24.7427 L9.1621,34.6287 C9.1621,39.7887 6.9031,42.8637 2.3851,43.8507 C1.3171,44.0837 0.5841,45.0747 0.5841,46.1687 L0.5841,49.1647 L1.6971,49.0337 C9.8601,48.2487 13.9421,43.4687 13.9421,34.6947 L13.9421,27.1417 C13.9431,27.0717 13.9441,27.0077 13.9451,26.9357 C13.9581,26.2887 13.9651,25.6727 13.9651,25.0897 L13.9651,23.8657 C13.9651,23.0877 13.9711,22.4537 13.9841,21.9607 C13.9971,21.4687 14.0161,21.0807 14.0421,20.7947 C14.0681,20.4837 14.0941,20.2507 14.1201,20.0947 C13.0151,20.0947 12.1041,20.2627 11.3621,20.5767 C11.1541,20.6197 10.9551,20.7307 10.7661,20.8917" id="Fill-335"></path><path d="M41.9987,7.7954 C43.1777,7.7954 44.0717,7.0754 44.6837,5.6344 C45.3817,7.1634 46.2977,7.9484 47.4337,7.9914 C48.4817,7.9914 49.2887,7.6424 49.8557,6.9444 C50.3357,6.3334 50.5767,5.5914 50.5767,4.7184 L50.5767,0.9204 L48.6777,0.9204 L48.7427,4.1934 C48.7427,5.4164 48.2407,6.0274 47.2367,6.0274 C46.1457,6.0274 45.5997,5.0894 45.5997,3.2114 L45.5997,0.9204 L43.7017,0.9204 L43.7017,3.2114 C43.7017,5.0894 43.1777,6.0274 42.1297,6.0274 C41.1247,6.1154 40.6237,5.4824 40.6237,4.1284 L40.6237,0.9204 L38.7907,0.9204 L38.7907,4.7184 C38.7907,5.5474 39.0297,6.2684 39.5107,6.8784 C40.0777,7.5774 40.9067,7.8834 41.9987,7.7954" id="Fill-337"></path><path d="M36.5311,41.8313 C35.4831,41.8313 34.5881,42.2013 33.8461,42.9443 C33.1031,43.6863 32.7331,44.5813 32.7331,45.6293 C32.7331,46.6763 33.1031,47.5713 33.8461,48.3143 C34.5881,49.0553 35.4831,49.4273 36.5311,49.4273 C37.5791,49.4273 38.4731,49.0553 39.2161,48.3143 C39.9571,47.5713 40.3291,46.6763 40.3291,45.6293 C40.3291,44.5813 39.9681,43.6863 39.2481,42.9443 C38.5281,42.2013 37.6221,41.8313 36.5311,41.8313" id="Fill-339"></path><path d="M102.6639,24.6104 C100.4369,19.4604 96.5299,16.5794 90.9429,15.9674 C88.1929,15.6624 85.0059,16.4694 81.3829,18.3904 C77.4249,20.5214 74.0739,23.7354 71.3299,28.0334 C71.3099,28.0644 71.2869,28.0964 71.2639,28.1244 C70.4039,29.1964 69.6199,30.0994 68.9099,30.8314 C68.2509,31.5104 67.0999,31.0474 67.0949,30.1014 L67.0489,21.9304 C67.0489,21.9164 67.0419,21.9104 67.0409,21.8964 C67.0489,21.7744 67.0569,21.6474 67.0669,21.5494 C67.0949,21.2384 67.1239,21.0054 67.1529,20.8494 C65.3639,20.8494 64.0009,21.1804 63.0649,21.8404 C62.1269,22.5014 61.6229,23.7174 61.6229,25.2714 L61.6309,25.2864 C61.6269,25.3214 61.6199,25.3534 61.6199,25.3944 L61.7399,33.1884 C61.7399,34.4544 61.1929,35.0654 60.1029,35.0214 L55.9119,34.9564 L55.9119,34.9834 C49.9379,34.6114 46.9419,31.4424 46.9419,25.4614 L46.9419,22.6284 C46.9549,22.1824 46.9729,21.8164 46.9979,21.5494 C47.0239,21.2384 47.0509,21.0054 47.0779,20.8494 C45.4329,20.8494 44.1799,21.1804 43.3189,21.8404 C42.4579,22.5014 42.0279,23.6064 42.0269,25.1574 L42.0259,25.1584 C42.0259,31.1874 38.9659,34.6664 32.8489,34.9984 C32.7949,35.0014 32.7379,35.0014 32.6839,34.9984 C26.5659,34.6664 23.5019,31.4914 23.5019,25.4614 L23.5019,14.1074 C23.5049,13.8504 23.5089,13.5894 23.5139,13.3134 C23.5269,12.6664 23.5339,12.0504 23.5339,11.4674 L23.5339,10.2424 C23.5339,9.4654 23.5399,8.8304 23.5529,8.3384 C23.5659,7.8464 23.5849,7.4574 23.6109,7.1724 C23.6369,6.8614 23.6629,6.6284 23.6889,6.4724 C22.0819,6.4724 20.8569,6.8024 20.0159,7.4634 C19.1729,8.1244 18.7519,9.2324 18.7519,10.7874 L18.7519,14.7564 C18.7329,14.9064 18.7219,15.0344 18.7219,15.1204 L18.7219,25.5274 C18.7219,34.7964 23.2699,39.5994 32.3409,39.9634 L32.3399,39.9974 C32.4689,39.9964 32.5859,39.9814 32.7129,39.9784 C32.8749,39.9824 33.0279,39.9964 33.1919,39.9974 L33.1909,39.9534 C37.9329,39.7374 41.4509,38.3594 43.7189,35.7924 C44.1489,35.3054 44.8899,35.3154 45.3169,35.8054 C47.6819,38.5224 51.4539,39.9204 56.6329,39.9974 L56.6319,39.9324 L103.8229,39.9324 C104.4109,39.9324 104.8909,39.4484 104.8839,38.8604 C104.8079,32.6654 104.0669,27.9154 102.6639,24.6104 M98.1509,35.0244 L74.7699,35.0874 C72.4999,35.0874 71.5169,35.0004 71.8239,34.8254 C72.2159,34.6074 74.1149,32.4024 77.5199,28.2124 C80.9719,23.9824 84.9359,21.4594 89.4139,20.6434 C89.5159,20.6254 89.6229,20.6194 89.7269,20.6264 C93.9609,20.9374 96.8329,23.3354 98.3419,27.8194 C98.9119,29.6414 99.1999,31.6944 99.2089,33.9774 C99.2109,34.5564 98.7289,35.0224 98.1509,35.0244" id="Fill-341"></path></g><g id="Group-359" transform="translate(125.000000, 0.000000)"><g id="Group-346"><mask id="mask-2" fill="white"><use xlink:href="#path-1"></use></mask><g id="Clip-345"></g><path d="M63.0174,98.8436 C65.6194,92.7146 67.4094,86.2676 68.8434,79.7656 C70.2804,73.2576 71.3374,66.6696 72.4254,60.0586 C73.4864,53.4266 74.4624,46.8476 74.7114,40.3186 C74.9784,33.8006 74.5334,27.3366 72.9604,21.2406 C72.1464,18.2306 71.1074,15.0856 69.6584,12.9656 C69.2874,12.4206 68.9194,11.9616 68.4624,11.5156 C68.0204,11.0606 67.5694,10.6886 67.1674,10.4526 C66.7624,10.2056 66.4234,10.0846 66.1624,10.0466 C65.8984,10.0096 65.6754,10.0246 65.3504,10.1336 C64.6994,10.3446 63.7534,11.1206 62.9534,12.1666 C62.1414,13.2176 61.4244,14.5016 60.8334,15.8476 C59.6514,18.5076 59.0554,21.5816 58.6424,24.7996 C58.4384,26.4076 58.2914,28.0596 58.1474,29.7406 L57.7144,34.7956 C57.4504,38.1316 57.2624,41.4736 57.1524,44.8206 C56.9334,51.5136 57.0484,58.2206 57.4374,64.9146 C57.8534,71.6986 58.1464,78.4396 58.9554,85.0406 C59.3674,88.3406 59.9454,91.6066 60.8054,94.7756 C61.2804,96.5276 61.8494,98.2596 62.5204,99.9336 C62.6864,99.5706 62.8644,99.2116 63.0174,98.8436" id="Fill-344" fill="#FA4F0D" mask="url(#mask-2)"></path></g><g id="Group-349"><mask id="mask-4" fill="white"><use xlink:href="#path-3"></use></mask><g id="Clip-348"></g><path d="M44.9873,104.6611 C45.6243,101.3441 46.2253,98.0231 46.6993,94.7041 C47.6053,88.0681 48.0193,81.3831 47.1323,74.8601 C46.6703,71.6371 46.0223,68.2951 44.9843,65.3001 C44.4653,63.7991 43.8473,62.3711 43.0643,61.1171 C42.6493,60.4581 42.3013,60.0131 41.8573,59.6061 C41.4283,59.2131 40.9753,58.9421 40.5563,58.8061 C40.1323,58.6791 39.6933,58.6331 39.4123,58.7271 C39.1113,58.8001 38.8163,58.9621 38.4613,59.2781 C37.7493,59.8991 37.0233,61.0911 36.4873,62.3941 C35.9453,63.7101 35.5293,65.1671 35.2863,66.6031 C35.0033,68.1591 34.7913,69.7341 34.6543,71.3291 C34.3973,74.5181 34.2983,77.7641 34.3813,81.0641 C34.4173,84.3491 34.5343,87.7591 34.6943,91.0391 C34.8553,94.3231 35.0963,97.5261 35.5943,100.6181 C36.1323,103.6691 36.8683,106.7761 38.1073,109.2831 C38.7183,110.5441 39.4593,111.6641 40.3413,112.5101 C40.7903,112.9401 41.2303,113.2891 41.7833,113.6041 C41.9203,113.6811 42.0603,113.7481 42.1983,113.8211 C43.4173,110.8251 44.3943,107.7881 44.9873,104.6611" id="Fill-347" fill="#FA4F0D" mask="url(#mask-4)"></path></g><g id="Group-352"><mask id="mask-6" fill="white"><use xlink:href="#path-5"></use></mask><g id="Clip-351"></g><path d="M88.7009,123.0648 C87.3829,119.8808 86.1859,116.6238 85.2389,113.2738 C84.8679,111.9608 84.5379,110.6338 84.2419,109.2978 C83.0839,110.3108 81.8669,111.2748 80.5389,112.1428 C78.9759,113.1598 77.2129,114.0278 75.1739,114.4098 C74.1579,114.5798 73.0459,114.5888 72.0129,114.3648 C70.9769,114.1638 70.0299,113.7848 69.1789,113.3188 C67.4599,112.3948 66.0509,111.1738 64.7889,109.8618 C64.2009,109.2518 63.6489,108.6178 63.1259,107.9578 C62.6769,108.6108 62.2189,109.2578 61.7419,109.8918 C60.6669,111.3268 59.4849,112.6998 58.1749,113.9828 C56.8629,115.2608 55.4669,116.5068 53.8349,117.5318 C52.2099,118.5488 50.4039,119.4368 48.3809,119.9018 C46.5549,120.3418 44.5789,120.3758 42.6839,120.0298 C42.0759,121.3548 41.4549,122.6698 40.8349,123.9898 C48.2149,126.9598 56.2739,128.5978 64.7169,128.5978 C73.3229,128.5978 81.5309,126.8958 89.0269,123.8158 C88.9189,123.5648 88.8069,123.3168 88.7009,123.0648" id="Fill-350" fill="#FA4F0D" mask="url(#mask-6)"></path></g><g id="Group-355"><mask id="mask-8" fill="white"><use xlink:href="#path-7"></use></mask><g id="Clip-354"></g><path d="M101.0732,55.7997 C101.4072,52.5527 101.5222,49.2937 101.3522,46.0697 C101.2772,44.4727 101.1152,42.8187 100.8892,41.3027 C100.6532,39.8087 100.2762,38.4537 99.6822,37.4157 C99.0712,36.3507 98.3412,35.7227 97.4492,35.4237 C96.5722,35.1337 95.6292,35.2587 94.8132,35.7907 C94.6062,35.9267 94.4222,36.0817 94.2172,36.2677 C93.9792,36.5097 93.7422,36.7577 93.5202,37.0247 C93.0732,37.5587 92.6612,38.1427 92.2832,38.7667 C91.5342,40.0237 90.9182,41.4277 90.4192,42.9137 C89.4142,45.8877 88.8192,49.1197 88.3392,52.4147 L86.9882,62.4627 C86.1522,69.1187 85.6762,75.8197 85.6042,82.5207 C85.5642,87.8197 85.8002,93.1187 86.3592,98.3767 C87.3642,96.6927 88.3372,94.9927 89.2492,93.3067 C95.3642,81.6157 99.6652,68.7927 101.0732,55.7997" id="Fill-353" fill="#FA4F0D" mask="url(#mask-8)"></path></g><g id="Group-358"><mask id="mask-10" fill="white"><use xlink:href="#path-9"></use></mask><g id="Clip-357"></g><path d="M64.7171,0.5598 C29.3601,0.5598 0.6981,29.2218 0.6981,64.5788 C0.6981,90.4608 16.0591,112.7538 38.1601,122.8438 C38.7211,121.6478 39.2851,120.4468 39.8381,119.2428 C39.6011,119.1498 39.3661,119.0518 39.1331,118.9508 C38.1581,118.5288 37.1741,117.9328 36.3251,117.2708 C34.6001,115.9328 33.2831,114.2818 32.2321,112.5918 C31.1851,110.8988 30.4021,109.1048 29.7671,107.3728 C29.1131,105.6258 28.6331,103.8348 28.2401,102.0488 C27.4431,98.4738 27.0951,94.8948 26.9381,91.4028 C26.8061,87.9008 26.7771,84.5238 26.8321,81.0208 C26.9531,77.5348 27.1481,73.9858 27.7551,70.4408 C28.0481,68.6688 28.4171,66.8968 28.8901,65.1428 C29.3991,63.2708 30.0841,61.4958 31.0041,59.7488 C31.9541,58.0238 33.0801,56.2468 35.0811,54.7928 C36.0701,54.0838 37.3721,53.5008 38.7621,53.3848 C40.1701,53.2458 41.4521,53.5658 42.5881,54.0778 C44.8781,55.1518 46.2971,57.1108 47.1451,58.8348 C48.0041,60.5528 48.6371,62.2998 49.0991,64.0458 C49.9991,67.5588 50.5131,70.9328 50.8631,74.4428 C51.5311,81.4278 50.9651,88.4118 49.8421,95.1778 C49.2971,98.5698 48.6401,101.9208 47.9431,105.2588 C47.2651,108.5268 46.1901,111.7008 44.9691,114.7478 C47.0141,115.0498 49.2321,114.5578 51.3171,113.3618 C53.9111,111.9308 56.2131,109.6598 58.1781,107.1518 C59.0071,106.0858 59.7631,104.9588 60.4701,103.8018 C57.4351,98.0798 55.8481,91.8628 54.6871,85.7048 C53.4121,78.8838 52.8801,72.0558 52.2091,65.3118 C51.5621,58.4708 51.2971,51.5928 51.3191,44.7128 C51.3381,41.2728 51.4361,37.8318 51.6131,34.3938 L51.9081,29.2948 C52.0081,27.5908 52.1131,25.8578 52.2871,24.0918 C52.4561,22.3298 52.7021,20.5338 53.0651,18.7278 C53.4281,16.9418 53.9471,15.0378 54.6741,13.2748 C55.4001,11.4968 56.2831,9.7598 57.4971,8.0838 C58.7291,6.4438 60.2811,4.7198 62.8081,3.6598 C64.0621,3.1498 65.5691,2.9198 66.9891,3.0918 C68.4151,3.2528 69.6891,3.7638 70.7421,4.3758 C71.8101,4.9898 72.6771,5.7118 73.4351,6.4528 C74.2051,7.1798 74.9231,8.0358 75.5201,8.8838 C76.7341,10.5998 77.5781,12.3908 78.2801,14.1168 C78.9391,15.8378 79.5421,17.5558 80.0301,19.3138 C82.0291,26.3378 82.4531,33.5848 82.1941,40.6088 C81.9131,47.6528 80.9771,54.5458 79.8031,61.2978 C77.5041,74.8588 73.1131,88.1888 67.2551,100.7228 C66.5971,102.1638 65.8531,103.5558 65.0541,104.9168 C66.5611,107.1598 68.5341,109.2098 70.7331,110.4208 C72.0321,111.1378 73.2621,111.3958 74.5451,111.1108 C75.8471,110.8168 77.1341,110.0248 78.3141,109.0638 C80.1571,107.5128 81.7151,105.5298 83.1491,103.4438 C83.1321,103.3278 83.1091,103.2118 83.0911,103.0948 C82.0181,96.2808 81.5541,89.3958 81.4811,82.5218 C81.4171,75.6468 81.7701,68.7758 82.4891,61.9468 L83.6511,51.7878 C84.0761,48.3628 84.6061,44.8688 85.6901,41.3758 C86.2311,39.6328 86.9301,37.8878 87.8791,36.2038 C88.3591,35.3638 88.9041,34.5418 89.5281,33.7588 C89.8391,33.3668 90.1781,32.9898 90.5271,32.6198 C90.9321,32.2148 91.3881,31.8138 91.8841,31.4708 C93.8601,30.0638 96.5951,29.5788 98.9711,30.3028 C101.3631,30.9628 103.3151,32.7838 104.3901,34.6488 C105.5141,36.5518 106.0281,38.5348 106.3621,40.3758 C106.6681,42.2118 106.8611,43.9378 106.9811,45.7278 C107.2301,49.2788 107.1641,52.8268 106.8661,56.3358 C106.2881,63.3638 104.7401,70.2278 102.6311,76.8658 C100.5141,83.5088 97.8261,89.9368 94.5991,96.1218 C92.9241,99.3088 90.9301,102.1998 88.6041,104.9048 C88.2261,105.3398 87.8291,105.7608 87.4361,106.1848 C87.5101,106.6148 87.5831,107.0458 87.6581,107.4748 C87.9561,109.0928 88.3391,110.6998 88.7651,112.2968 C89.6171,115.4928 90.7181,118.6368 91.9491,121.7408 C92.0371,121.9618 92.1321,122.1808 92.2231,122.4008 C113.8141,112.1118 128.7361,90.0888 128.7361,64.5788 C128.7361,29.2218 100.0741,0.5598 64.7171,0.5598" id="Fill-356" fill="#FA4F0D" mask="url(#mask-10)"></path></g></g></g></g></svg> 